<svg width="20" height="16" viewBox="0 0 20 16" fill="none" xmlns="http://www.w3.org/2000/svg">
<path d="M19.5168 6.81506C19.8262 7.12488 20 7.54486 20 7.98274C20 8.42062 19.8262 8.8406 19.5168 9.15042L13.2862 15.3843C12.9762 15.6943 12.5558 15.8684 12.1174 15.8684C11.679 15.8684 11.2586 15.6943 10.9486 15.3843C10.6387 15.0743 10.4645 14.6539 10.4645 14.2155C10.4645 13.7771 10.6387 13.3567 10.9486 13.0467L14.3591 9.63512H1.65237C1.21414 9.63512 0.79385 9.46103 0.483971 9.15115C0.174089 8.84127 0 8.42098 0 7.98274C0 7.54451 0.174089 7.12422 0.483971 6.81434C0.79385 6.50446 1.21414 6.33037 1.65237 6.33037L14.3591 6.33037L10.9486 2.91986C10.7952 2.76638 10.6734 2.58416 10.5903 2.38362C10.5073 2.18308 10.4645 1.96815 10.4645 1.75108C10.4645 1.53402 10.5073 1.31909 10.5903 1.11855C10.6734 0.918005 10.7952 0.735789 10.9486 0.582303C11.1021 0.428817 11.2843 0.307066 11.4849 0.224C11.6854 0.140934 11.9004 0.0981798 12.1174 0.0981798C12.3345 0.0981798 12.5494 0.140934 12.75 0.224C12.9505 0.307066 13.1327 0.428817 13.2862 0.582303L19.5168 6.81506Z" fill="white"/>
</svg>
