<svg width="282" height="76" viewBox="0 0 282 76" fill="none" xmlns="http://www.w3.org/2000/svg">
<path d="M271.619 75.6297C265.139 75.6297 261.899 71.7897 261.899 65.0697V62.6697H268.139V65.5497C268.139 68.5497 269.459 69.6297 271.559 69.6297C273.659 69.6297 275.039 68.5497 275.039 65.4297C275.039 61.9497 273.599 59.7897 269.279 56.0097C263.759 51.1497 261.899 47.6697 261.899 42.8697C261.899 36.2697 265.319 32.4297 271.739 32.4297C278.159 32.4297 281.339 36.2697 281.339 42.9897V44.7297H275.099V42.5697C275.099 39.5697 273.899 38.4297 271.799 38.4297C269.699 38.4297 268.439 39.5697 268.439 42.4497C268.439 45.5097 269.939 47.6697 274.259 51.4497C279.779 56.3097 281.579 59.7297 281.579 64.9497C281.579 71.7897 278.099 75.6297 271.619 75.6297Z" fill="url(#paint0_linear_1_650)"/>
<path d="M253.47 75.0298L252.33 66.8098H244.71L243.57 75.0298H237.45L244.29 33.0298H253.23L260.07 75.0298H253.47ZM245.55 61.1098H251.49L248.49 39.9298L245.55 61.1098Z" fill="url(#paint1_linear_1_650)"/>
<path d="M227.707 75.0298V33.0298H234.307V75.0298H227.707Z" fill="url(#paint2_linear_1_650)"/>
<path d="M203.332 75.0298V33.0298H213.412C220.012 33.0298 223.252 36.6898 223.252 43.4098V64.6498C223.252 71.3698 220.012 75.0298 213.412 75.0298H203.332ZM209.932 69.0298H213.292C215.392 69.0298 216.652 67.9498 216.652 64.9498V43.1098C216.652 40.1098 215.392 39.0298 213.292 39.0298H209.932V69.0298Z" fill="url(#paint3_linear_1_650)"/>
<path d="M179.239 75.6297C172.759 75.6297 169.219 71.7897 169.219 65.0697V42.9897C169.219 36.2697 172.759 32.4297 179.239 32.4297C185.719 32.4297 189.259 36.2697 189.259 42.9897V65.0697C189.259 71.7897 185.719 75.6297 179.239 75.6297ZM179.239 69.6297C181.339 69.6297 182.659 68.4897 182.659 65.4897V42.5697C182.659 39.5697 181.339 38.4297 179.239 38.4297C177.139 38.4297 175.819 39.5697 175.819 42.5697V65.4897C175.819 68.4897 177.139 69.6297 179.239 69.6297Z" fill="url(#paint4_linear_1_650)"/>
<path d="M155.204 75.6297C148.724 75.6297 145.364 71.7897 145.364 65.0697V64.2897H151.604V65.4897C151.604 68.4897 152.924 69.6297 155.024 69.6297C157.364 69.6297 158.684 68.4897 158.684 64.4697V56.4297C157.364 58.8897 155.324 60.0897 152.564 60.0897C147.704 60.0897 145.244 56.6697 145.244 50.4897V42.9897C145.244 36.2697 148.784 32.4297 155.264 32.4297C161.744 32.4297 165.284 36.2697 165.284 42.9897V64.7097C165.284 71.7897 162.044 75.6297 155.204 75.6297ZM155.264 54.0897C157.544 54.0897 158.684 52.7697 158.684 49.9497V42.5097C158.684 39.7497 157.544 38.4297 155.264 38.4297C152.984 38.4297 151.844 39.7497 151.844 42.5097V49.9497C151.844 52.7697 152.984 54.0897 155.264 54.0897Z" fill="url(#paint5_linear_1_650)"/>
<path d="M104.25 75.0298V33.0298H113.55L117.93 63.5098L122.31 33.0298H131.61V75.0298H125.37V43.2298L120.45 75.0298H114.93L110.01 43.2298V75.0298H104.25Z" fill="url(#paint6_linear_1_650)"/>
<path d="M82.687 75.0298V33.0298H100.687V39.0298H89.287V50.1298H98.347V56.1298H89.287V69.0298H100.687V75.0298H82.687Z" fill="url(#paint7_linear_1_650)"/>
<path d="M58.537 75.6298C52.057 75.6298 48.697 71.7898 48.697 65.0698V33.0298H55.297V65.5498C55.297 68.5498 56.557 69.6298 58.657 69.6298C60.757 69.6298 62.017 68.5498 62.017 65.5498V33.0298H68.377V65.0698C68.377 71.7898 65.017 75.6298 58.537 75.6298Z" fill="url(#paint8_linear_1_650)"/>
<path d="M23.3315 75.0298V33.0298H31.4915L38.1515 58.1698V33.0298H44.0315V75.0298H37.3715L29.2115 44.3698V75.0298H23.3315Z" fill="url(#paint9_linear_1_650)"/>
<path d="M9.72 75.6297C3.36 75.6297 0 71.7897 0 65.3097V42.7497C0 36.2697 3.36 32.4297 9.72 32.4297C16.08 32.4297 19.44 36.2697 19.44 42.7497V47.1897H13.2V42.3297C13.2 39.5697 11.88 38.4297 9.9 38.4297C7.92 38.4297 6.6 39.5697 6.6 42.3297V65.7897C6.6 68.5497 7.92 69.6297 9.9 69.6297C11.88 69.6297 13.2 68.5497 13.2 65.7897V59.6697H19.44V65.3097C19.44 71.7897 16.08 75.6297 9.72 75.6297Z" fill="url(#paint10_linear_1_650)"/>
<path d="M258.833 11.4624V9.58252H264.802V11.4624H258.833Z" fill="#1B1B1B"/>
<path d="M217.856 18.0298V16.4917L219.174 16.3086L225.388 0.256348H227.451L233.554 16.3086L234.86 16.4917V18.0298H229.758V16.4917L231.101 16.2598L229.929 12.9883H222.812L221.604 16.2598L222.946 16.4917V18.0298H217.856ZM223.557 10.9741H229.196L226.584 3.74756L226.438 3.34473H226.364L226.218 3.74756L223.557 10.9741Z" fill="#1B1B1B"/>
<path d="M202.116 18.0298V16.4917L204.106 16.1499V2.14844L202.116 1.80664V0.256348H208.5V1.80664L206.511 2.14844V16.1499L208.5 16.4917V18.0298H202.116Z" fill="#1B1B1B"/>
<path d="M177.697 18.0298V16.4917L179.687 16.1499V2.14844L177.697 1.80664V0.268555H185.62C186.914 0.268555 188.004 0.463867 188.891 0.854492C189.786 1.23698 190.466 1.79443 190.93 2.52686C191.394 3.25928 191.625 4.15446 191.625 5.2124C191.625 6.25407 191.398 7.12891 190.942 7.83691C190.494 8.54492 189.855 9.08203 189.025 9.44824C188.195 9.80632 187.211 9.99756 186.071 10.022L182.092 10.0952V16.1499L184.082 16.4917V18.0298H177.697ZM189.428 18.0298L185.473 9.15527L187.878 9.13086L191.162 16.2354L192.395 16.4551V18.0298H189.428ZM182.092 8.20312H185.375C186.718 8.20312 187.695 7.94678 188.305 7.43408C188.916 6.92139 189.221 6.17269 189.221 5.18799C189.221 4.25212 188.928 3.51156 188.342 2.96631C187.756 2.42106 186.848 2.14844 185.62 2.14844H182.092V8.20312Z" fill="#1B1B1B"/>
<path d="M160.944 18.2861C159.797 18.2861 158.767 18.0664 157.856 17.627C156.944 17.1875 156.167 16.569 155.524 15.7715C154.89 14.9658 154.401 14.0137 154.06 12.915C153.726 11.8164 153.559 10.6038 153.559 9.27734V9.021C153.559 7.70264 153.726 6.49414 154.06 5.39551C154.401 4.28874 154.89 3.33252 155.524 2.52686C156.167 1.72119 156.944 1.09863 157.856 0.65918C158.767 0.219727 159.797 0 160.944 0C162.157 0 163.223 0.219727 164.143 0.65918C165.062 1.09863 165.831 1.72119 166.45 2.52686C167.076 3.33252 167.548 4.28874 167.866 5.39551C168.183 6.49414 168.342 7.70264 168.342 9.021V9.27734C168.342 10.6038 168.183 11.8164 167.866 12.915C167.548 14.0137 167.076 14.9658 166.45 15.7715C165.831 16.569 165.062 17.1875 164.143 17.627C163.223 18.0664 162.157 18.2861 160.944 18.2861ZM160.944 16.2842C162.124 16.2842 163.076 15.9912 163.801 15.4053C164.533 14.8193 165.07 14.0015 165.412 12.9517C165.754 11.8937 165.925 10.6689 165.925 9.27734V8.99658C165.925 7.61312 165.75 6.40055 165.4 5.35889C165.058 4.30908 164.521 3.49121 163.789 2.90527C163.056 2.3112 162.108 2.01416 160.944 2.01416C159.878 2.01416 158.975 2.3112 158.234 2.90527C157.494 3.49935 156.932 4.32129 156.55 5.37109C156.167 6.41276 155.976 7.62126 155.976 8.99658V9.27734C155.976 10.6608 156.167 11.8815 156.55 12.9395C156.932 13.9893 157.494 14.8112 158.234 15.4053C158.975 15.9912 159.878 16.2842 160.944 16.2842Z" fill="#1B1B1B"/>
<path d="M133.754 18.0298V16.4917L135.744 16.1499V2.0752H131.716L131.362 4.54102H129.555V0.256348H144.326V4.54102H142.543L142.177 2.0752H138.149V16.1499L140.139 16.4917V18.0298H133.754Z" fill="#1B1B1B"/>
<path d="M102.463 18.0298V16.4917L104.453 16.1499V2.14844L102.463 1.80664V0.256348H104.453H106.882L115.598 14.1113L115.671 14.0869V2.14844L113.486 1.80664V0.256348H117.88H119.87V1.80664L117.88 2.14844V18.0298H115.683L106.735 4.10156L106.662 4.12598V16.1499L108.847 16.4917V18.0298H102.463Z" fill="#1B1B1B"/>
<path d="M78.9961 18.0298V16.4917L80.9858 16.1499V2.14844L78.9961 1.80664V0.256348H92.1553V4.52881H90.2266L89.958 2.11182H83.3906V7.89795H89.9458V9.79004H83.3906V16.2231H90.3486L90.6172 13.7695H92.5337V18.0298H78.9961Z" fill="#1B1B1B"/>
<path d="M47.4604 18.0298V16.4917L49.4502 16.1499V2.14844L47.4604 1.80664V0.256348H49.4502H52.6606L58.3857 13.7451H58.459L64.001 0.256348H69.3599V1.80664L67.3701 2.14844V16.1499L69.3599 16.4917V18.0298H62.9756V16.4917L65.0752 16.1499V10.9985V3.54004L65.0142 3.52783L59.2402 17.395H57.6411L51.6719 3.55225L51.6108 3.56445L51.6963 10.9985V16.1499L53.8447 16.4917V18.0298H47.4604Z" fill="#1B1B1B"/>
<path d="M17.2261 11.4624V9.58252H23.1953V11.4624H17.2261Z" fill="#1B1B1B"/>
<defs>
<linearGradient id="paint0_linear_1_650" x1="275.004" y1="81.2715" x2="-7.82634" y2="58.1068" gradientUnits="userSpaceOnUse">
<stop stop-color="#D44B1A"/>
<stop offset="1" stop-color="#E77951"/>
</linearGradient>
<linearGradient id="paint1_linear_1_650" x1="275.004" y1="81.2714" x2="-7.82632" y2="58.1067" gradientUnits="userSpaceOnUse">
<stop stop-color="#D44B1A"/>
<stop offset="1" stop-color="#E77951"/>
</linearGradient>
<linearGradient id="paint2_linear_1_650" x1="275.004" y1="81.2714" x2="-7.82633" y2="58.1067" gradientUnits="userSpaceOnUse">
<stop stop-color="#D44B1A"/>
<stop offset="1" stop-color="#E77951"/>
</linearGradient>
<linearGradient id="paint3_linear_1_650" x1="275.004" y1="81.2714" x2="-7.82633" y2="58.1067" gradientUnits="userSpaceOnUse">
<stop stop-color="#D44B1A"/>
<stop offset="1" stop-color="#E77951"/>
</linearGradient>
<linearGradient id="paint4_linear_1_650" x1="275.004" y1="81.2713" x2="-7.8263" y2="58.1066" gradientUnits="userSpaceOnUse">
<stop stop-color="#D44B1A"/>
<stop offset="1" stop-color="#E77951"/>
</linearGradient>
<linearGradient id="paint5_linear_1_650" x1="275.004" y1="81.2715" x2="-7.8263" y2="58.1068" gradientUnits="userSpaceOnUse">
<stop stop-color="#D44B1A"/>
<stop offset="1" stop-color="#E77951"/>
</linearGradient>
<linearGradient id="paint6_linear_1_650" x1="275.004" y1="81.2715" x2="-7.82633" y2="58.1068" gradientUnits="userSpaceOnUse">
<stop stop-color="#D44B1A"/>
<stop offset="1" stop-color="#E77951"/>
</linearGradient>
<linearGradient id="paint7_linear_1_650" x1="275.004" y1="81.2715" x2="-7.82632" y2="58.1068" gradientUnits="userSpaceOnUse">
<stop stop-color="#D44B1A"/>
<stop offset="1" stop-color="#E77951"/>
</linearGradient>
<linearGradient id="paint8_linear_1_650" x1="275.004" y1="81.2716" x2="-7.82633" y2="58.1068" gradientUnits="userSpaceOnUse">
<stop stop-color="#D44B1A"/>
<stop offset="1" stop-color="#E77951"/>
</linearGradient>
<linearGradient id="paint9_linear_1_650" x1="275.004" y1="81.2716" x2="-7.82634" y2="58.1068" gradientUnits="userSpaceOnUse">
<stop stop-color="#D44B1A"/>
<stop offset="1" stop-color="#E77951"/>
</linearGradient>
<linearGradient id="paint10_linear_1_650" x1="275.004" y1="81.2714" x2="-7.82631" y2="58.1066" gradientUnits="userSpaceOnUse">
<stop stop-color="#D44B1A"/>
<stop offset="1" stop-color="#E77951"/>
</linearGradient>
</defs>
</svg>
